<svg width="65" height="65" viewBox="0 0 65 65" fill="none" xmlns="http://www.w3.org/2000/svg">
<path d="M8.125 16.25H13.5417H56.875" stroke="#F1E8E0" stroke-width="2" stroke-linecap="round" stroke-linejoin="round"/>
<path d="M51.4582 16.2501V54.1668C51.4582 55.6033 50.8875 56.9811 49.8717 57.9969C48.8558 59.0127 47.4781 59.5834 46.0415 59.5834H18.9582C17.5216 59.5834 16.1438 59.0127 15.128 57.9969C14.1122 56.9811 13.5415 55.6033 13.5415 54.1668V16.2501M21.6665 16.2501V10.8334C21.6665 9.39683 22.2372 8.01907 23.253 7.00325C24.2688 5.98743 25.6466 5.41675 27.0832 5.41675H37.9165C39.3531 5.41675 40.7308 5.98743 41.7467 7.00325C42.7625 8.01907 43.3332 9.39683 43.3332 10.8334V16.2501" stroke="#F1E8E0" stroke-width="2" stroke-linecap="round" stroke-linejoin="round"/>
<path d="M27.0835 29.7917V46.0417" stroke="#F1E8E0" stroke-width="2" stroke-linecap="round" stroke-linejoin="round"/>
<path d="M37.9165 29.7917V46.0417" stroke="#F1E8E0" stroke-width="2" stroke-linecap="round" stroke-linejoin="round"/>
</svg>
