<svg width="31" height="31" viewBox="0 0 31 31" fill="none" xmlns="http://www.w3.org/2000/svg">
<path d="M7.75012 2.58331L3.87512 7.74998V25.8333C3.87512 26.5185 4.14729 27.1755 4.63176 27.66C5.11623 28.1445 5.77331 28.4166 6.45846 28.4166H24.5418C25.2269 28.4166 25.884 28.1445 26.3685 27.66C26.8529 27.1755 27.1251 26.5185 27.1251 25.8333V7.74998L23.2501 2.58331H7.75012Z" stroke="#786B3A" stroke-width="2" stroke-linecap="round" stroke-linejoin="round"/>
<path d="M3.87512 7.75H27.1251" stroke="#786B3A" stroke-width="2" stroke-linecap="round" stroke-linejoin="round"/>
<path d="M20.6668 12.9167C20.6668 14.287 20.1225 15.6011 19.1535 16.5701C18.1846 17.539 16.8704 18.0834 15.5002 18.0834C14.1299 18.0834 12.8157 17.539 11.8468 16.5701C10.8778 15.6011 10.3335 14.287 10.3335 12.9167" stroke="#786B3A" stroke-width="2" stroke-linecap="round" stroke-linejoin="round"/>
</svg>
